PathFileType  4	(X/Y/Z) /Users/callumsherry/opencap-sandboxes/opencap-core-sandbox/diagnostics/openpose_swapped
DataRate	CameraRate	NumFrames	NumMarkers	Units	OrigDataRate	OrigDataStartFrame	OrigNumFrames
60.0	60.0	15	20	m	60.0	489	651
Frame#	Time	Neck			RShoulder			RElbow			RWrist			LShoulder			LElbow			LWrist			midHip			RHip			RKnee			RAnkle			LHip			LKnee			LAnkle			LBigToe			LSmallToe			LHeel			RBigToe			RSmallToe			RHeel			
		X1	Y1	Z1	X2	Y2	Z2	X3	Y3	Z3	X4	Y4	Z4	X5	Y5	Z5	X6	Y6	Z6	X7	Y7	Z7	X8	Y8	Z8	X9	Y9	Z9	X10	Y10	Z10	X11	Y11	Z11	X12	Y12	Z12	X13	Y13	Z13	X14	Y14	Z14	X15	Y15	Z15	X16	Y16	Z16	X17	Y17	Z17	X18	Y18	Z18	X19	Y19	Z19	X20	Y20	Z20	

489	8.1333333	-0.5294100	1.2377700	-0.1790700	-0.5019800	1.2327000	-0.0006500	-0.5833900	0.9666100	0.1073900	-0.5840600	0.7214200	0.1423500	-0.4903500	1.2473700	-0.3555900	-0.5876700	0.9984600	-0.4522600	-0.5799600	0.7559200	-0.4996700	-0.6415200	0.7620200	-0.1715000	-0.6364100	0.7693200	-0.0354600	-0.4883300	0.4714400	0.0035100	-0.6438200	0.1080800	-0.0424400	-0.6710400	0.7492800	-0.3108700	-0.4852400	0.4631900	-0.3547800	-0.6561800	0.1168900	-0.3112700	-0.5051800	0.0275700	-0.3263500	-0.5130700	0.0405500	-0.3731700	-0.7175200	0.0823900	-0.2869900	-0.4888900	0.0464000	-0.0343900	-0.5082000	0.0633800	0.0212800	-0.7080100	0.0768800	-0.0783100
490	8.1500000	-0.5304700	1.2535700	-0.1796900	-0.5032300	1.2480600	-0.0013900	-0.5512900	0.9958600	0.0951600	-0.5848400	0.7388000	0.1419800	-0.4931800	1.2669900	-0.3556200	-0.5884500	1.0201000	-0.4519100	-0.5626400	0.7700200	-0.4912900	-0.6401000	0.7731100	-0.1716500	-0.6356400	0.7750600	-0.0362200	-0.4862700	0.4776500	0.0039600	-0.6436300	0.1073700	-0.0426700	-0.6711300	0.7607700	-0.3107700	-0.4827000	0.4696200	-0.3442200	-0.6555900	0.1168100	-0.3113900	-0.5056400	0.0277100	-0.3263700	-0.5310300	0.0330000	-0.3696200	-0.6979800	0.0829300	-0.2904600	-0.4874500	0.0468300	-0.0344000	-0.5055900	0.0590400	0.0215200	-0.7085200	0.0715400	-0.0778700
491	8.1666667	-0.5315300	1.2725000	-0.1797900	-0.5033100	1.2712200	-0.0017100	-0.5905000	1.0078600	0.0959600	-0.5613000	0.7630700	0.1452800	-0.5102500	1.2864100	-0.3625800	-0.5886400	1.0352800	-0.4516500	-0.5616800	0.7868400	-0.4909600	-0.6419200	0.7787800	-0.1714700	-0.6369400	0.7806900	-0.0356000	-0.4887900	0.4815900	0.0032300	-0.6434800	0.1083300	-0.0424400	-0.6722100	0.7714900	-0.3110400	-0.4870100	0.4741900	-0.3449700	-0.6552100	0.1114300	-0.3107600	-0.5054200	0.0276400	-0.3263000	-0.5320000	0.0326800	-0.3700000	-0.6947300	0.0840500	-0.2902300	-0.4887700	0.0463200	-0.0343800	-0.5057200	0.0593300	0.0218300	-0.7074200	0.0769700	-0.0782800
492	8.1833333	-0.5316300	1.2971300	-0.1801900	-0.5185500	1.2863400	0.0026300	-0.5916800	1.0189300	0.0957000	-0.5860100	0.7758300	0.1404700	-0.4948000	1.3010000	-0.3653100	-0.5894300	1.0466600	-0.4515800	-0.5636200	0.8083300	-0.4907100	-0.6399300	0.7899600	-0.1714700	-0.6537300	0.7894700	-0.0309700	-0.5088000	0.4765900	-0.0017900	-0.6211400	0.1223600	-0.0363800	-0.6517000	0.7861000	-0.3143900	-0.5020600	0.4753000	-0.3414900	-0.6546800	0.1112300	-0.3109200	-0.5058800	0.0278200	-0.3264200	-0.5310800	0.0330500	-0.3696300	-0.6965000	0.0765200	-0.2900200	-0.4875700	0.0466500	-0.0343600	-0.5054700	0.0590200	0.0215700	-0.7080800	0.0715400	-0.0776600
493	8.2000000	-0.5328000	1.3115300	-0.1801300	-0.5199400	1.3010400	0.0024600	-0.5919500	1.0391900	0.0946600	-0.5854700	0.7918700	0.1400500	-0.5109100	1.3203300	-0.3623400	-0.6083500	1.0605800	-0.4486800	-0.5813700	0.8323100	-0.4874000	-0.6417800	0.8064900	-0.1713300	-0.6366500	0.8087300	-0.0357400	-0.5094100	0.4819000	-0.0017900	-0.6446900	0.1140300	-0.0418300	-0.6728400	0.7995700	-0.3108300	-0.5056800	0.4801800	-0.3413500	-0.6568200	0.1105600	-0.3121600	-0.5075300	0.0325000	-0.3271600	-0.5335500	0.0374600	-0.3707100	-0.6944400	0.0724100	-0.2905100	-0.4886300	0.0464700	-0.0344200	-0.5054400	0.0595600	0.0218000	-0.7281000	0.0692700	-0.0729700
494	8.2166667	-0.5493100	1.3222800	-0.1763400	-0.5206800	1.3158000	0.0019300	-0.5917500	1.0597000	0.0942400	-0.5868500	0.8032700	0.1396400	-0.5139500	1.3305800	-0.3625900	-0.6091800	1.0768200	-0.4486700	-0.5640400	0.8407800	-0.4794900	-0.6406900	0.8172600	-0.1717200	-0.6364000	0.8193600	-0.0366200	-0.5091300	0.4825500	-0.0017200	-0.6441800	0.1187100	-0.0426700	-0.6719700	0.8056400	-0.3106700	-0.5212500	0.4705100	-0.3379800	-0.6569700	0.1101800	-0.3122900	-0.5078200	0.0325500	-0.3273100	-0.5323900	0.0378100	-0.3703200	-0.6987600	0.0765000	-0.2913000	-0.4873700	0.0466800	-0.0344100	-0.5052400	0.0591500	0.0214800	-0.7066500	0.0773700	-0.0783300
495	8.2333333	-0.5700600	1.3367300	-0.1825800	-0.5213100	1.3341900	0.0017300	-0.5919800	1.0748100	0.0937000	-0.5862400	0.8239700	0.1390700	-0.5145200	1.3447900	-0.3730300	-0.5907300	1.0978600	-0.4509900	-0.5629900	0.8518900	-0.4790600	-0.6419700	0.8281600	-0.1717600	-0.6371600	0.8298200	-0.0363400	-0.5340700	0.4810600	-0.0078900	-0.6443000	0.1197300	-0.0424800	-0.6525600	0.8192500	-0.3145200	-0.5246800	0.4807900	-0.3372200	-0.6579300	0.1101700	-0.3121200	-0.5072200	0.0326000	-0.3271200	-0.5333000	0.0376100	-0.3707200	-0.6970000	0.0773200	-0.2912100	-0.4890500	0.0462700	-0.0344200	-0.5057000	0.0595100	0.0218600	-0.7076400	0.0769900	-0.0781400
496	8.2500000	-0.5511000	1.3564700	-0.1771600	-0.5212700	1.3447500	0.0012500	-0.6155300	1.0845800	0.0889600	-0.5879000	0.8449200	0.1380200	-0.5154300	1.3642200	-0.3724800	-0.6101800	1.1082900	-0.4482800	-0.5645500	0.8679300	-0.4789800	-0.6403800	0.8284900	-0.1716900	-0.6539800	0.8282500	-0.0316100	-0.5576500	0.4800200	-0.0135700	-0.6445000	0.1188000	-0.0427600	-0.6522000	0.8250600	-0.3143400	-0.5416800	0.4763400	-0.3341500	-0.6558500	0.1049700	-0.3114700	-0.5074500	0.0328000	-0.3272100	-0.5325000	0.0378700	-0.3703500	-0.6977500	0.0706000	-0.2905400	-0.5052200	0.0391700	-0.0292800	-0.5055700	0.0590600	0.0216200	-0.7064000	0.0772500	-0.0783500
497	8.2666667	-0.5344500	1.3785700	-0.1807800	-0.5209700	1.3674100	0.0008100	-0.6151600	1.0948400	0.0885000	-0.5865800	0.8602300	0.1376400	-0.5133700	1.3828300	-0.3621000	-0.6108300	1.1281600	-0.4585300	-0.5634800	0.8838500	-0.4782200	-0.6422800	0.8448900	-0.1720500	-0.6372600	0.8463500	-0.0366800	-0.5585900	0.4901400	-0.0140200	-0.6449800	0.1194400	-0.0426500	-0.6721600	0.8335200	-0.3110400	-0.5445800	0.4869200	-0.3334200	-0.6574100	0.1103100	-0.3120200	-0.5049100	0.0392200	-0.3260000	-0.5319600	0.0442000	-0.3698000	-0.6968200	0.0657000	-0.2914100	-0.5068400	0.0387100	-0.0293200	-0.5059800	0.0593500	0.0218900	-0.7081600	0.0761800	-0.0783300
498	8.2833333	-0.5509300	1.3947500	-0.1771300	-0.5221200	1.3873900	-0.0001100	-0.6165700	1.1209600	0.0876500	-0.5881300	0.8716800	0.1371500	-0.5166300	1.3977800	-0.3622700	-0.6108900	1.1396600	-0.4479600	-0.5656800	0.8998100	-0.4782400	-0.6405700	0.8502000	-0.1718900	-0.6362400	0.8470100	-0.0370700	-0.5786600	0.4860300	-0.0188300	-0.6449100	0.1186600	-0.0427800	-0.6718800	0.8392900	-0.3104900	-0.5613400	0.4883500	-0.3298900	-0.6566200	0.1101800	-0.3122000	-0.5056900	0.0391800	-0.3261600	-0.5312000	0.0444100	-0.3694700	-0.6988500	0.0645000	-0.2916500	-0.5051700	0.0393000	-0.0292400	-0.5078600	0.0632900	0.0210600	-0.7264700	0.0692200	-0.0731200
499	8.3000000	-0.5511600	1.4036600	-0.1770000	-0.5226900	1.3966600	-0.0002500	-0.6156100	1.1400900	0.0868300	-0.5871800	0.8874800	0.1368800	-0.5149000	1.4114100	-0.3619200	-0.5918100	1.1550300	-0.4501800	-0.5459200	0.9181600	-0.4695500	-0.6201800	0.8590200	-0.1655300	-0.6366300	0.8576800	-0.0368000	-0.5861400	0.5000800	-0.0307000	-0.6447800	0.1134800	-0.0429100	-0.6506400	0.8530800	-0.3032000	-0.5637700	0.4989300	-0.3291900	-0.6573200	0.1102900	-0.3121600	-0.4852100	0.0478500	-0.3185900	-0.5137600	0.0457400	-0.3737000	-0.7194200	0.0562900	-0.2993400	-0.5065200	0.0391300	-0.0292400	-0.5252300	0.0566500	0.0267300	-0.7010800	0.0723500	-0.0671000
500	8.3166667	-0.5349700	1.4129400	-0.1813600	-0.5222300	1.4107500	-0.0006500	-0.6161900	1.1458800	0.0869100	-0.5886300	0.8933800	0.1365200	-0.5174500	1.4171100	-0.3624600	-0.6305300	1.1647600	-0.4554200	-0.5477700	0.9284100	-0.4696000	-0.6219400	0.8637700	-0.1761500	-0.6355700	0.8583200	-0.0373700	-0.6090800	0.4998100	-0.0364500	-0.6446200	0.1126200	-0.0431700	-0.6508400	0.8585800	-0.3031300	-0.5614400	0.5053600	-0.3190300	-0.6571000	0.1100200	-0.3122800	-0.5058600	0.0390200	-0.3262200	-0.5322900	0.0379600	-0.3702900	-0.7219400	0.0550300	-0.2993400	-0.5070500	0.0437400	-0.0297700	-0.5248100	0.0563200	0.0264400	-0.6996200	0.0730500	-0.0673000
501	8.3333333	-0.5354600	1.4219900	-0.1812200	-0.5216600	1.4150400	-0.0003600	-0.6152300	1.1559600	0.0866900	-0.5712300	0.9155400	0.1303300	-0.5344400	1.4370200	-0.3694400	-0.6313200	1.1794000	-0.4554400	-0.5652600	0.9370600	-0.4666900	-0.6232100	0.8639400	-0.1762200	-0.6363100	0.8632100	-0.0369900	-0.6109800	0.4991100	-0.0369800	-0.6441300	0.1136200	-0.0429700	-0.6315000	0.8610100	-0.3071700	-0.6035100	0.4892800	-0.3217400	-0.6581700	0.1099900	-0.3120500	-0.5055800	0.0389100	-0.3261400	-0.5331000	0.0379000	-0.3706300	-0.6968400	0.0653100	-0.2915300	-0.5087000	0.0433100	-0.0298300	-0.5078900	0.0637200	0.0214200	-0.7004100	0.0726100	-0.0671600
502	8.3500000	-0.5532800	1.4383700	-0.1781400	-0.5232300	1.4298900	-0.0010900	-0.6168200	1.1619200	0.0865700	-0.5729100	0.9267000	0.1297500	-0.5360900	1.4470800	-0.3694600	-0.6318300	1.1903600	-0.4553600	-0.5670900	0.9425700	-0.4668900	-0.6220700	0.8692000	-0.1762300	-0.6357000	0.8638800	-0.0375000	-0.6329100	0.4940000	-0.0423000	-0.6440300	0.1128500	-0.0432000	-0.6525000	0.8638100	-0.3140600	-0.6218800	0.4958400	-0.3185900	-0.6778800	0.1026400	-0.3083100	-0.5061600	0.0389800	-0.3263500	-0.5312200	0.0445100	-0.3694200	-0.7198300	0.0564900	-0.2874000	-0.4896900	0.0507900	-0.0349600	-0.5072700	0.0633900	0.0211000	-0.6988700	0.0731100	-0.0672900
503	8.3666667	-0.5534800	1.4470600	-0.1779100	-0.5225000	1.4339800	-0.0006200	-0.6171600	1.1713100	0.0859200	-0.5941500	0.9286400	0.1254200	-0.5171500	1.4499300	-0.3720000	-0.6312100	1.1954000	-0.4551600	-0.5655800	0.9531100	-0.4664400	-0.6238000	0.8747600	-0.1763100	-0.6369200	0.8740400	-0.0372400	-0.6327000	0.4995400	-0.0424600	-0.6441900	0.1137100	-0.0430300	-0.6532200	0.8689500	-0.3142200	-0.6236300	0.4958700	-0.3064600	-0.6773900	0.1090700	-0.3073100	-0.5055600	0.0390700	-0.3261900	-0.5130300	0.0523100	-0.3729700	-0.7175000	0.0576300	-0.2871800	-0.4893400	0.0462200	-0.0344400	-0.5076900	0.0638000	0.0213600	-0.7005500	0.0723200	-0.0671500
